<svg xmlns="http://www.w3.org/2000/svg" viewBox="0 23.25 272.29998779296875 46.75" data-asc="1.2" width="272.29998779296875" height="46.75"><defs/><g fill="#446a25"><g transform="translate(0, 0)"><path d="M6 60.20Q4.20 60.20 2.75 58.70Q1.30 57.20 1.30 53.75Q1.30 50.95 1.95 48.25Q2.60 45.55 3.43 42.77Q4.25 40 4.83 37.02Q5.40 34.05 5.20 30.75Q3.85 30.95 2.55 31.45Q1.25 31.95 0 32.90Q0 29.75 0.55 27.77Q1.10 25.80 2.70 24.90Q4.30 24 7.45 24Q9.15 24 11.25 24.25Q13.35 24.50 15.58 24.75Q17.80 25 19.80 25Q21.75 25 23.30 24.63Q24.85 24.25 25.70 23.25Q26.70 23.90 27.23 25.02Q27.75 26.15 27.75 27.45Q27.75 28.80 27.13 30.07Q26.50 31.35 25.20 32.17Q23.90 33 21.80 33Q19.60 33 17 32.30Q14.40 31.60 11.65 31.10Q11.90 32.20 12.03 33.30Q12.15 34.40 12.15 35.55Q12.15 36.80 12.05 38.02Q11.95 39.25 11.75 40.55Q12.80 40 14.30 39.55Q15.80 39.10 17.38 38.80Q18.95 38.50 20.20 38.50Q21 38.50 21.60 38.65Q22.10 39.70 22.10 41.20Q22.10 43.60 20.90 46.10L20.55 46.25Q18.70 45.25 16.27 44.70Q13.85 44.15 11.20 43.95Q10.70 46.80 10.25 49.75Q9.80 52.70 9.80 55.80Q9.80 56.45 9.83 57.15Q9.85 57.85 9.90 58.55Q8.25 60.20 6 60.20ZM38.70 60.35Q34.95 60.35 32.50 58.85Q30.05 57.35 28.88 54.88Q27.70 52.40 27.70 49.60Q27.70 46.95 28.68 44.30Q29.65 41.65 31.53 39.47Q33.40 37.30 36.10 35.97Q38.80 34.65 42.30 34.65Q46.05 34.65 48.48 36.17Q50.90 37.70 52.08 40.20Q53.25 42.70 53.25 45.55Q53.25 48.15 52.30 50.77Q51.35 53.40 49.48 55.58Q47.60 57.75 44.90 59.05Q42.20 60.35 38.70 60.35M40.05 56.10Q41.40 56.10 42.30 54.70Q43.20 53.30 43.65 51.13Q44.10 48.95 44.10 46.70Q44.10 44.70 43.73 42.92Q43.35 41.15 42.60 40.02Q41.85 38.90 40.65 38.90Q39.35 38.90 38.42 40.30Q37.50 41.70 37.05 43.85Q36.60 46 36.60 48.30Q36.60 50.30 36.98 52.08Q37.35 53.85 38.10 54.98Q38.85 56.10 40.05 56.10ZM67.05 60.35Q63.30 60.35 60.85 58.85Q58.40 57.35 57.23 54.88Q56.05 52.40 56.05 49.60Q56.05 46.95 57.03 44.30Q58.00 41.65 59.88 39.47Q61.75 37.30 64.45 35.97Q67.15 34.65 70.65 34.65Q74.40 34.65 76.83 36.17Q79.25 37.70 80.43 40.20Q81.60 42.70 81.60 45.55Q81.60 48.15 80.65 50.77Q79.70 53.40 77.83 55.58Q75.95 57.75 73.25 59.05Q70.55 60.35 67.05 60.35M68.40 56.10Q69.75 56.10 70.65 54.70Q71.55 53.30 72 51.13Q72.45 48.95 72.45 46.70Q72.45 44.70 72.08 42.92Q71.70 41.15 70.95 40.02Q70.20 38.90 69 38.90Q67.70 38.90 66.78 40.30Q65.85 41.70 65.40 43.85Q64.95 46 64.95 48.30Q64.95 50.30 65.33 52.08Q65.70 53.85 66.45 54.98Q67.20 56.10 68.40 56.10ZM91.65 60.20Q89.85 60.20 88.28 58.95Q86.70 57.70 85.72 55.30Q84.75 52.90 84.75 49.50Q84.75 46 85.75 43.25Q86.75 40.50 88.38 38.58Q90 36.65 91.92 35.65Q93.85 34.65 95.70 34.65Q97.75 34.65 99.35 35.92Q100.95 37.20 101.55 39.90Q102 37.40 102.33 35.13Q102.65 32.85 102.65 31.10Q102.65 28.80 102.05 27.75L102.05 27.45Q103.20 26.15 104.58 25.52Q105.95 24.90 107.20 24.90Q108.85 24.90 110 25.92Q111.15 26.95 111.15 28.85Q111.15 29.90 110.80 31.95Q110.45 34 109.95 36.63Q109.45 39.25 108.92 42.02Q108.40 44.80 108.05 47.33Q107.70 49.85 107.70 51.70Q107.70 53.25 108.03 54.17Q108.35 55.10 109.10 55.10Q109.65 55.10 110.22 54.73Q110.80 54.35 111 53.85L111.35 54.10Q111.35 55.75 110.30 57.13Q109.25 58.50 107.65 59.35Q106.05 60.20 104.35 60.20Q102.50 60.20 101.42 59.17Q100.35 58.15 99.90 56.55Q99.45 54.95 99.40 53.25Q97.85 56.85 95.78 58.52Q93.70 60.20 91.65 60.20M95 53.85Q96.30 53.85 97.90 51.50Q99.50 49.15 100.70 44.65L101 43.10Q100.20 41.25 99.28 40.47Q98.35 39.70 97.50 39.70Q96.25 39.70 95.15 41.08Q94.05 42.45 93.38 44.58Q92.70 46.70 92.70 49.05Q92.70 51.30 93.35 52.58Q94 53.85 95 53.85ZM116.25 60.30Q114.10 60.30 113.05 58.55Q112 56.80 112 54.60Q112 53.30 112.32 52.02Q112.65 50.75 113.30 49.70Q113.85 49.80 114.32 49.85Q114.80 49.90 115.25 49.90Q118.50 49.90 120.88 48Q123.25 46.10 124.65 43.05Q123.80 40.55 122.80 38.17Q121.80 35.80 120.67 34.25Q119.55 32.70 118.20 32.70Q117.40 32.70 116.65 33.38Q115.90 34.05 115.75 35.35L115.10 35.25Q115.15 29.25 116.77 26.48Q118.40 23.70 120.85 23.70Q122.80 23.70 124.35 25.17Q125.90 26.65 127.13 28.92Q128.35 31.20 129.30 33.60Q130.25 36 131 37.85Q132.05 33.05 133.82 29.92Q135.60 26.80 137.70 25.25Q139.80 23.70 141.65 23.70Q143.60 23.70 144.50 25.13Q145.40 26.55 145.40 28.65Q145.40 30.20 144.93 31.97Q144.45 33.75 143.55 35.35Q142.20 34.70 140.75 34.70Q138.40 34.70 136.30 36.47Q134.20 38.25 132.65 41.65Q134.30 45.25 135.45 47.35Q136.60 49.45 137.35 50.42Q138.10 51.40 138.65 51.70Q139.20 52 139.65 52Q141.50 52 141.80 49.55L142.40 49.65Q142.40 54.70 140.75 57.50Q139.10 60.30 136.05 60.30Q134.10 60.30 132.47 58.98Q130.85 57.65 129.35 54.75Q127.85 51.85 126.10 47.15Q125.40 51.35 123.77 54.30Q122.15 57.25 120.15 58.77Q118.15 60.30 116.25 60.30ZM151.15 70Q149.90 70 148.78 69.35Q147.65 68.70 146.93 67.25Q146.20 65.80 146.20 63.35Q146.20 61 146.83 58.25Q147.45 55.50 148.25 52.73Q149.05 49.95 149.68 47.45Q150.30 44.95 150.30 43Q150.30 41.55 149.90 41.02Q149.50 40.50 148.95 40.50Q148.45 40.50 147.95 40.80Q147.45 41.10 147.10 41.50L146.75 41.30Q146.75 39.55 147.78 38.08Q148.80 36.60 150.40 35.70Q152 34.80 153.70 34.80Q155.35 34.80 156.35 35.63Q157.35 36.45 157.88 37.75Q158.40 39.05 158.50 40.55Q160.40 37.55 162.65 36.10Q164.90 34.65 166.90 34.65Q169.60 34.65 171.48 37.20Q173.35 39.75 173.35 45.10Q173.35 50.10 171.75 53.48Q170.15 56.85 167.73 58.52Q165.30 60.20 162.80 60.20Q160.65 60.20 158.83 58.92Q157 57.65 156 55.20Q155.55 57.25 155.23 59.25Q154.90 61.25 154.90 63.15Q154.90 64.20 155.03 65.20Q155.15 66.20 155.45 67.20L155.45 67.50Q154.80 68.75 153.63 69.38Q152.45 70 151.15 70M160.35 55.35Q161.55 55.35 162.45 54.40Q163.35 53.45 164 51.92Q164.65 50.40 164.98 48.65Q165.30 46.90 165.30 45.25Q165.30 43.15 164.75 41.67Q164.20 40.20 163.05 40.20Q161.60 40.20 159.80 43.13Q158 46.05 157 52Q157.45 53.55 158.35 54.45Q159.25 55.35 160.35 55.35ZM181.95 60.20Q180.15 60.20 178.75 58.73Q177.35 57.25 177.35 54.55Q177.35 53.25 177.65 51.60Q177.95 49.95 178.35 48.23Q178.75 46.50 179.05 44.98Q179.35 43.45 179.35 42.45Q179.35 41.40 178.98 40.77Q178.60 40.15 178.00 40.15Q177.05 40.15 176.05 41.45L175.75 41.25Q175.70 40.45 176.10 39.35Q176.50 38.25 177.35 37.22Q178.20 36.20 179.53 35.50Q180.85 34.80 182.65 34.80Q185.30 34.80 186.50 36.33Q187.70 37.85 187.70 40Q187.70 40.35 187.68 40.72Q187.65 41.10 187.60 41.45Q189.40 38.20 191.38 36.47Q193.35 34.75 195.05 34.75Q196.65 34.75 197.40 36Q198.15 37.25 198.15 39Q198.15 40.60 197.53 42.25Q196.90 43.90 195.68 44.98Q194.45 46.05 192.70 46L192.50 45.90Q192.45 44.60 191.65 43.85Q190.85 43.10 189.85 43.10Q188.50 43.10 187.33 44.45Q186.15 45.80 186.15 48.35Q186.15 49.90 186.50 51.70Q186.85 53.50 186.85 54.75Q186.85 56.25 186.15 57.50Q185.45 58.75 184.35 59.48Q183.25 60.20 181.95 60.20ZM210.40 60.35Q206.75 60.35 204.35 58.88Q201.95 57.40 200.75 54.98Q199.55 52.55 199.55 49.75Q199.55 47.10 200.58 44.42Q201.60 41.75 203.58 39.55Q205.55 37.35 208.38 36Q211.20 34.65 214.75 34.65Q219.15 34.65 221.18 36.63Q223.20 38.60 223.20 41.40Q223.20 43.80 221.93 45.83Q220.65 47.85 218.55 49.08Q216.45 50.30 213.95 50.30Q212.65 50.30 211.30 49.90Q209.95 49.50 208.65 48.65Q208.90 51.75 210.45 53.15Q212.00 54.55 214.15 54.55Q215.65 54.55 217.15 53.98Q218.65 53.40 219.93 52.48Q221.20 51.55 221.90 50.50L222.25 50.75Q222.25 53.35 221.18 55.17Q220.10 57 218.35 58.15Q216.60 59.30 214.53 59.83Q212.45 60.35 210.40 60.35M211.55 46.85Q213.15 46.85 214.15 45.92Q215.15 45 215.65 43.75Q216.15 42.50 216.15 41.55Q216.15 40.40 215.50 39.63Q214.85 38.85 213.70 38.85Q212.80 38.85 211.73 39.50Q210.65 40.15 209.80 41.72Q208.95 43.30 208.70 46.10Q210.30 46.85 211.55 46.85ZM234.20 60.45Q231.10 60.45 229.05 59.60Q227.00 58.75 226.00 57.42Q225.00 56.10 225.00 54.75Q225.00 52.85 226.70 51.38Q228.40 49.90 231.30 49.90Q231.30 52.45 231.95 53.98Q232.60 55.50 233.63 56.15Q234.65 56.80 235.60 56.80Q236.75 56.80 237.53 56.13Q238.30 55.45 238.30 54.45Q238.30 53.05 236.85 52Q235.40 50.95 233.10 49.65Q231.95 48.95 230.60 48.02Q229.25 47.10 228.30 45.77Q227.35 44.45 227.35 42.60Q227.35 40.65 228.48 39.15Q229.60 37.65 231.45 36.63Q233.30 35.60 235.45 35.08Q237.60 34.55 239.65 34.55Q243.50 34.55 245.45 36.10Q247.40 37.65 247.40 39.40Q247.40 40.90 245.90 42.10Q244.40 43.30 241.30 43.30Q241.35 40.75 240.25 39.58Q239.15 38.40 237.90 38.40Q237.00 38.40 236.40 38.95Q235.80 39.50 235.80 40.55Q235.80 41.75 236.58 42.63Q237.35 43.50 238.53 44.17Q239.70 44.85 240.95 45.45Q242.65 46.25 244.15 47.15Q245.65 48.05 246.60 49.20Q247.55 50.35 247.55 52Q247.55 54.25 245.73 56.17Q243.90 58.10 240.85 59.27Q237.80 60.45 234.20 60.45ZM258.95 60.45Q255.85 60.45 253.80 59.60Q251.75 58.75 250.75 57.42Q249.75 56.10 249.75 54.75Q249.75 52.85 251.45 51.38Q253.15 49.90 256.05 49.90Q256.05 52.45 256.70 53.98Q257.35 55.50 258.38 56.15Q259.40 56.80 260.35 56.80Q261.50 56.80 262.28 56.13Q263.05 55.45 263.05 54.45Q263.05 53.05 261.60 52Q260.15 50.95 257.85 49.65Q256.70 48.95 255.35 48.02Q254.00 47.10 253.05 45.77Q252.10 44.45 252.10 42.60Q252.10 40.65 253.23 39.15Q254.35 37.65 256.20 36.63Q258.05 35.60 260.20 35.08Q262.35 34.55 264.40 34.55Q268.25 34.55 270.20 36.10Q272.15 37.65 272.15 39.40Q272.15 40.90 270.65 42.10Q269.15 43.30 266.05 43.30Q266.10 40.75 265.00 39.58Q263.90 38.40 262.65 38.40Q261.75 38.40 261.15 38.95Q260.55 39.50 260.55 40.55Q260.55 41.75 261.33 42.63Q262.10 43.50 263.28 44.17Q264.45 44.85 265.70 45.45Q267.40 46.25 268.90 47.15Q270.40 48.05 271.35 49.20Q272.30 50.35 272.30 52Q272.30 54.25 270.48 56.17Q268.65 58.10 265.60 59.27Q262.55 60.45 258.95 60.45Z"/></g></g></svg>